<?xml version="1.0" standalone="no"?>
<!DOCTYPE svg PUBLIC "-//W3C//DTD SVG 20010904//EN"
 "http://www.w3.org/TR/2001/REC-SVG-20010904/DTD/svg10.dtd">
<svg version="1.0" xmlns="http://www.w3.org/2000/svg"
 width="237.000000pt" height="248.000000pt" viewBox="0 0 237.000000 248.000000"
 preserveAspectRatio="xMidYMid meet">

<g transform="translate(0.000000,248.000000) scale(0.100000,-0.100000)"
fill="#ff385c" stroke="none">
<path d="M855 2119 c-187 -126 -422 -284 -522 -351 l-183 -122 0 -718 0 -718
454 0 453 0 66 142 c37 79 70 144 74 145 5 2 37 -63 73 -142 l65 -145 260 0
c282 0 328 6 427 56 67 34 158 125 192 192 55 109 69 222 41 341 -21 89 -60
156 -131 226 l-61 61 48 52 c148 161 153 398 13 569 -24 30 -167 131 -456 325
-232 156 -433 291 -447 300 -26 16 -26 16 -366 -213z m724 -328 c391 -265 401
-274 401 -358 -1 -51 -30 -113 -71 -147 -72 -61 -47 -72 -394 162 -172 117
-316 212 -320 212 -3 0 -184 -119 -401 -265 -218 -146 -398 -265 -400 -265 -2
0 -4 85 -4 188 l0 188 402 271 c222 149 407 269 413 265 5 -3 174 -116 374
-251z m-316 -473 c34 -23 207 -140 384 -260 308 -210 323 -221 347 -270 59
-117 13 -258 -99 -309 -34 -16 -67 -19 -221 -19 l-181 0 -51 113 c-28 61 -108
238 -177 392 -70 154 -133 294 -141 311 -13 31 -13 32 24 57 20 14 41 26 45
26 4 1 36 -18 70 -41z m-279 -333 l79 -175 -81 -173 -82 -172 -255 -3 -255 -2
0 183 0 184 248 166 c136 91 252 166 257 166 6 1 46 -78 89 -174z"/>
</g>
</svg>
